<?xml version="1.0" standalone="no"?>
<!DOCTYPE svg PUBLIC "-//W3C//DTD SVG 20010904//EN"
 "http://www.w3.org/TR/2001/REC-SVG-20010904/DTD/svg10.dtd">
<svg version="1.0" xmlns="http://www.w3.org/2000/svg"
 width="110.000000pt" height="110.000000pt" viewBox="0 0 110.000000 110.000000"
 preserveAspectRatio="xMidYMid meet">
<metadata>
Created by potrace 1.11, written by Peter Selinger 2001-2013
</metadata>
<g transform="translate(0.000000,110.000000) scale(0.100000,-0.100000)"
fill="#000000" stroke="none">
<path d="M0 550 l0 -550 550 0 550 0 0 550 0 550 -550 0 -550 0 0 -550z m566
395 c9 -8 11 -15 5 -15 -7 0 -9 -10 -5 -24 6 -27 -12 -44 -29 -27 -8 8 -8 14
1 23 17 17 15 28 -5 29 -17 1 -17 2 0 6 9 2 15 9 12 14 -9 14 5 11 21 -6z
m-51 -82 c19 -15 19 -15 -7 -9 -32 7 -36 -5 -10 -30 9 -10 17 -24 17 -31 0 -7
5 -13 10 -13 6 0 10 10 10 23 0 13 7 23 19 25 16 3 18 0 12 -21 -7 -30 11 -47
21 -20 4 10 13 24 20 31 22 22 16 44 -9 37 -22 -7 -22 -6 -6 10 38 40 64 -11
32 -61 -9 -13 -14 -28 -10 -32 4 -3 10 -2 14 4 4 6 15 13 25 17 19 7 24 37 5
37 -9 0 -9 3 -1 11 27 27 45 -21 19 -50 -7 -9 -17 -29 -22 -44 -10 -29 -10
-29 -102 -30 -70 -2 -92 1 -92 11 0 7 -11 30 -25 50 -14 20 -25 42 -25 49 0
16 17 26 31 17 8 -5 8 -8 0 -14 -15 -8 -3 -40 14 -40 7 0 15 -6 18 -12 2 -7 8
-10 12 -6 5 5 0 23 -10 42 -29 54 -5 85 40 49z m45 -13 c0 -5 -4 -10 -10 -10
-5 0 -10 5 -10 10 0 6 5 10 10 10 6 0 10 -4 10 -10z m-272 -123 c27 -13 29
-37 2 -37 -21 0 -28 -20 -7 -21 6 0 3 -4 -8 -9 -18 -7 -16 -10 18 -24 21 -9
42 -27 46 -39 8 -19 4 -24 -32 -40 -22 -10 -43 -14 -46 -10 -3 4 -15 8 -26 8
-14 0 -19 6 -17 18 2 10 -3 17 -13 17 -9 0 -13 5 -10 11 4 6 -1 17 -11 24 -13
10 -15 14 -5 15 8 0 11 7 8 20 -3 11 1 26 8 34 11 10 11 16 2 26 -10 10 -6 12
16 8 21 -4 25 -2 17 8 -9 10 -6 11 12 7 13 -2 33 -10 46 -16z m583 9 c-9 -11
-6 -12 14 -8 15 2 25 0 25 -7 0 -6 -5 -11 -12 -11 -7 0 -6 -5 4 -12 22 -18 29
-66 10 -73 -8 -3 -11 -12 -8 -20 3 -9 0 -15 -10 -15 -10 0 -13 -6 -9 -19 4
-15 0 -20 -24 -23 -32 -5 -101 18 -101 34 0 18 21 48 33 48 7 0 22 7 33 16 16
13 16 15 2 10 -10 -3 -18 -1 -18 4 0 6 5 10 10 10 19 0 10 18 -12 23 -21 6
-21 7 -4 26 10 11 30 22 45 24 14 2 28 5 30 6 2 0 -2 -5 -8 -13z m-457 -58
c-5 -8 -2 -9 9 -5 12 5 17 1 17 -13 0 -27 18 -25 22 3 3 20 9 22 72 25 38 2
88 -1 112 -6 27 -6 44 -6 46 0 2 5 16 -2 31 -16 16 -14 33 -26 39 -26 7 0 6
-5 -2 -15 -9 -11 -17 -12 -30 -5 -29 15 -30 14 -30 -45 0 -57 8 -67 31 -39 9
11 22 14 43 9 17 -3 50 -9 73 -12 37 -4 43 -9 57 -44 11 -27 22 -39 36 -39 26
0 26 34 0 67 -35 45 -20 70 50 83 45 8 53 -4 21 -32 -17 -14 -20 -14 -34 -1
-8 9 -20 12 -26 9 -17 -11 -13 -41 9 -61 11 -10 20 -31 20 -47 0 -23 -6 -32
-29 -41 -21 -9 -27 -17 -21 -26 4 -8 15 -11 23 -8 12 4 14 -4 12 -46 -2 -31 2
-55 9 -59 7 -5 5 -8 -6 -8 -10 0 -18 -4 -18 -8 0 -4 -16 -6 -35 -4 -19 2 -32
8 -29 13 3 5 0 9 -7 9 -8 0 -8 4 1 15 7 9 21 13 31 10 13 -4 19 -1 19 9 0 16
-69 66 -91 66 -6 0 -3 7 5 16 23 23 20 42 -13 75 -53 53 -118 29 -138 -51 -8
-29 -20 -41 -75 -73 l-67 -39 -48 28 c-67 38 -93 64 -93 91 0 31 -46 73 -80
73 -40 0 -80 -35 -80 -70 0 -16 5 -32 11 -35 5 -4 -7 -16 -28 -27 -54 -28 -89
-77 -44 -63 21 6 43 -15 33 -31 -8 -13 -74 -25 -66 -12 3 4 -1 8 -8 8 -9 0
-13 17 -13 58 0 51 2 58 19 58 31 -1 29 19 -4 31 -38 14 -40 50 -4 92 26 31
27 61 1 61 -7 0 -17 -4 -22 -9 -13 -12 -55 5 -55 22 0 11 10 12 46 7 65 -10
84 -48 44 -85 -11 -10 -20 -29 -20 -42 0 -18 5 -23 24 -23 19 0 26 7 31 29 8
37 20 47 65 54 19 3 47 9 62 12 19 5 35 1 57 -15 l31 -21 0 71 0 71 -22 -21
c-26 -24 -32 -25 -48 -5 -10 12 -10 15 2 15 8 0 25 11 38 25 24 25 47 35 34
13z m-71 -5 c-7 -2 -19 -2 -25 0 -7 3 -2 5 12 5 14 0 19 -2 13 -5z m450 0 c-7
-2 -21 -2 -30 0 -10 3 -4 5 12 5 17 0 24 -2 18 -5z m-447 -225 c16 -12 31 -23
33 -24 2 -2 -4 -11 -13 -20 -23 -22 -15 -39 17 -39 32 -1 39 -7 32 -26 -8 -21
-61 -23 -69 -3 -4 10 -13 13 -27 9 -18 -6 -19 -5 -10 13 18 33 13 49 -19 62
-29 12 -38 29 -23 43 13 14 51 6 79 -15z m491 5 c4 -9 1 -19 -5 -21 -6 -2 -21
-11 -33 -20 -17 -15 -19 -21 -10 -45 10 -26 9 -28 -9 -22 -13 4 -22 1 -26 -9
-7 -19 -61 -18 -68 0 -7 17 18 36 37 28 22 -8 31 14 14 39 -13 20 -12 23 16
44 37 27 75 30 84 6z m-69 -172 c12 -6 22 -20 22 -30 0 -17 4 -18 46 -9 58 13
94 -1 94 -35 0 -20 -5 -23 -42 -22 -24 0 -69 -4 -100 -9 -56 -8 -58 -7 -58 14
0 20 4 22 30 17 17 -4 30 -3 30 2 0 5 -19 13 -42 17 -55 9 -353 9 -395 0 -32
-7 -33 -6 -33 23 0 32 1 32 70 45 53 10 355 0 378 -13z m-466 -47 c4 -3 8 -11
8 -19 0 -10 9 -12 36 -8 32 5 36 4 32 -13 -3 -15 -11 -19 -43 -17 -22 1 -68 3
-102 5 -48 2 -63 7 -63 18 0 20 11 36 30 43 16 7 87 0 102 -9z"/>
<path d="M489 635 c-13 -19 -27 -35 -31 -35 -5 0 -8 -8 -8 -17 0 -13 3 -14 11
-6 9 9 15 8 27 -3 8 -8 17 -12 20 -9 3 3 -3 11 -13 19 -17 12 -17 14 5 44 13
18 21 34 18 37 -3 3 -16 -10 -29 -30z"/>
<path d="M553 638 c-9 -10 -12 -18 -6 -18 18 0 10 -33 -9 -38 -26 -6 -22 -20
8 -34 23 -11 29 -10 46 12 14 17 18 33 14 59 -3 20 -5 36 -6 37 -3 8 -34 -4
-47 -18z"/>
<path d="M640 615 c0 -14 5 -25 10 -25 6 0 10 11 10 25 0 14 -4 25 -10 25 -5
0 -10 -11 -10 -25z"/>
<path d="M615 550 c-3 -5 -1 -18 5 -29 14 -26 13 -31 -6 -31 -9 0 -18 9 -21
19 -6 25 -76 39 -99 20 -12 -10 -17 -10 -23 0 -6 9 -10 9 -19 -2 -9 -11 -8
-18 6 -30 17 -15 19 -15 35 3 9 11 23 20 31 20 24 0 48 -31 43 -56 -3 -18 2
-23 27 -28 23 -5 27 -9 17 -15 -17 -11 -5 -32 14 -24 21 7 19 29 -5 51 l-21
19 21 6 c21 5 28 41 10 52 -18 11 -11 27 9 20 11 -3 22 -2 24 2 3 5 -5 10 -18
11 -13 1 -27 -3 -30 -8z"/>
<path d="M513 485 c-14 -10 -19 -22 -16 -35 4 -14 0 -20 -11 -20 -9 0 -16 -6
-16 -14 0 -8 6 -13 13 -12 23 3 37 17 37 36 0 10 9 21 19 25 12 4 18 12 14 21
-7 18 -13 18 -40 -1z"/>
<path d="M550 380 c0 -16 5 -30 10 -30 6 0 10 14 10 30 0 17 -4 30 -10 30 -5
0 -10 -13 -10 -30z"/>
</g>
</svg>
