<?xml version="1.0" encoding="utf-8"?>
<!-- Generator: Adobe Illustrator 16.0.0, SVG Export Plug-In . SVG Version: 6.00 Build 0)  -->
<!DOCTYPE svg PUBLIC "-//W3C//DTD SVG 1.1//EN" "http://www.w3.org/Graphics/SVG/1.1/DTD/svg11.dtd">
<svg version="1.1" id="Laag_1" xmlns="http://www.w3.org/2000/svg" xmlns:xlink="http://www.w3.org/1999/xlink" x="0px" y="0px"
	 width="500px" height="500px" viewBox="0 0 500 500" enable-background="new 0 0 500 500" xml:space="preserve">
<!-- <rect x="-4.362" y="-5" fill="" width="510" height="510"/> -->
<g>
	<path fill="#FFFFFF" d="M260.283,348.332h-9.639v-26.74h9.639V348.332z M303.74,230.501h-9.637v-26.753h9.637V230.501z
		 M125.25,184.384c-0.729,0-5.715,0.015-5.715,1.044c0,1.042,2.327,0.514,5.715,1.071c7.713,1.337,10.754,5.201,16.168,5.201
		c4.922,0,9.932-3.32,7.978-10.446c-0.314-1.19-1.006-0.896-1.175-0.103c-0.75,3.173-4.65,4.996-8.771,4.996
		C134.366,186.147,133.264,184.384,125.25,184.384 M72.168,211.095c0.845,1.188,9.947,12.986-4.011,17.497
		c-0.617,0.191-0.83,0.793,0.103,1.19c10.306,4.319,15.301-3.613,15.301-3.613c5.188,11.884-2.769,18.452-2.769,18.452
		c1.131,2.159,6.045,5.729,13.538,7.389c2.829-1.498,6.815-4.421,8.47-8.888c0,0,2.035,5.186,0.198,10.137
		c21.061,1.911,28.51-14.927,44.744-11.9c0.463,0.089,0.688-0.189,0.688-0.704c0-10.373-6.369-29.37-26.467-33.22
		c-20.025-3.864-14.633-12.077-14.633-12.077c8.456-0.396,13.326,3.276,13.326,3.276c1.55-2.526-0.634-5.259-0.634-5.259
		c0.815-0.969,1.249-4.408,1.249-4.408c-9.506,0-12.003-2.057-12.003-2.057c-1.462-5.642,2.471-13.604,16.596-5.083
		c3.52-3.145,3.262-7.935,3.262-7.935c1.059-0.485,1.719-2.173,1.719-2.894c0-2.351-11.298-8.684-14.207-9.434
		c-0.689-3.423-5.084-8.358-18.35-6.565c-6.288,0.764-10.821-0.882-8.697-4.54c0.359-0.618-0.765-0.735-1.354-0.133
		c-1.462,1.455-3.461,5.568,2.027,8.316c6.098,3.085,6.473,9.197,6.518,10.078c0.087,1.292-1.464,1.411-1.81,0.118
		c-2.812-10.312-16.896-12.517-25.241-7.052c0.492,5.524,6.42,9.183,9.689,9.183c1.866,0,4.467-1.88,4.467-4.437
		c0-1.249,0.632-1.101,1.007-0.132c1.366,3.673-4.048,11.255-12.129,6.641c-8.212,8.212-4.929,18.335-4.104,22.067
		c1.476,6.7-1.802,13.193-7.854,10.167c-0.301-0.147-0.618-0.264-0.618,0.471C60.194,209.947,65.703,214.708,72.168,211.095
		 M117.396,169.707c-3.841,4.276-10.078,3.276-11.567-3.761C113.695,165.519,117.082,166.312,117.396,169.707 M361.818,186.147
		c-4.099,0-8.006-1.822-8.756-4.996c-0.161-0.793-0.852-1.087-1.175,0.103c-1.954,7.126,3.068,10.446,7.978,10.446
		c5.421,0,8.463-3.864,16.177-5.201c3.381-0.558,5.7-0.029,5.7-1.071c0-1.029-4.98-1.044-5.7-1.044
		C368.004,184.384,366.915,186.147,361.818,186.147 M441.079,205.747c0-0.735-0.308-0.618-0.601-0.471
		c-6.054,3.026-9.314-3.467-7.86-10.167c0.837-3.732,4.113-13.855-4.101-22.067c-8.08,4.614-13.516-2.967-12.135-6.641
		c0.382-0.969,1.014-1.117,1.014,0.132c0,2.557,2.586,4.437,4.467,4.437c3.247,0,9.198-3.658,9.696-9.183
		c-8.359-5.464-22.435-3.26-25.255,7.052c-0.339,1.293-1.911,1.175-1.81-0.118c0.061-0.881,0.427-6.993,6.523-10.078
		c5.494-2.748,3.482-6.861,2.042-8.316c-0.604-0.602-1.733-0.485-1.366,0.133c2.116,3.658-2.41,5.304-8.684,4.54
		c-13.28-1.792-17.659,3.143-18.364,6.565c-2.908,0.75-14.207,7.083-14.207,9.434c0,0.72,0.661,2.409,1.734,2.894
		c0,0-0.279,4.79,3.26,7.935c14.104-8.522,18.043-0.559,16.573,5.083c0,0-2.497,2.057-12.02,2.057c0,0,0.472,3.439,1.265,4.408
		c0,0-2.16,2.733-0.634,5.259c0,0,4.88-3.672,13.342-3.276c0,0,5.378,8.213-14.662,12.077c-20.083,3.85-26.432,22.847-26.432,33.22
		c0,0.514,0.206,0.792,0.677,0.704c16.233-3.026,23.685,13.812,44.752,11.9c-1.821-4.951,0.19-10.137,0.19-10.137
		c1.646,4.467,5.643,7.391,8.461,8.888c7.479-1.659,12.416-5.229,13.546-7.389c0,0-7.963-6.568-2.774-18.452
		c0,0,4.996,7.932,15.324,3.613c0.909-0.397,0.701-0.999,0.103-1.19c-13.973-4.51-4.892-16.309-4.026-17.497
		C435.602,214.708,441.079,209.947,441.079,205.747 M395.479,165.946c-1.499,7.037-7.759,8.037-11.577,3.761
		C384.21,166.312,387.589,165.519,395.479,165.946 M246.834,47.333c0,1.777,1.064,3.625,1.667,4.5
		c1.249,1.754,0.867,2.705,0.278,3.292c-0.571,0.587-1.551,0.785-3.326-0.448C244.579,54.059,242.78,53,241.001,53
		c-3.041,0-4.291,2.294-4.291,3.99c0,1.72,1.506,3.703,4.547,3.703c1.778,0,3.321-0.757,4.195-1.365
		c1.775-1.235,2.755-1.058,3.326-0.471c0.589,0.573-0.271,6.692-0.946,11.497c-5.039,1.05-7.464,5.083-7.464,7.426
		c0,6.067,6.472,9.557,10.276,11.584c3.806-2.027,10.284-5.517,10.284-11.584c0-2.344-2.438-6.376-7.456-7.426
		c-0.688-4.805-1.549-10.924-0.962-11.497c0.572-0.587,1.549-0.764,3.32,0.471c0.867,0.608,2.41,1.365,4.201,1.365
		c3.042,0,4.538-1.983,4.538-3.703c0-1.696-1.443-3.964-4.485-3.964c-1.791,0-3.389,1.034-4.254,1.65
		c-1.771,1.233-2.748,1.035-3.32,0.448c-0.587-0.587-0.912-1.705,0.322-3.459c0.616-0.875,1.5-2.388,1.5-4.167
		c0-3.042-1.998-5.249-3.695-5.249C248.919,42.251,246.834,44.291,246.834,47.333 M250.646,92.589c-4.078,0-7.391,3.276-7.391,7.367
		c0,4.063,3.312,7.375,7.391,7.375c4.076,0,7.375-3.312,7.375-7.375C258.021,95.866,254.722,92.589,250.646,92.589 M250.646,163.581
		c29.545,0,46.235,5.64,46.235,5.64c0.161-14.926,0.059-23.257,8.607-22.007c-4.672-12.547,15.484-17.469,15.484-33.82
		c0-10.755-7.61-11.99-9.856-11.99c-6.687,0-5.644,4.364-11.343,4.364c-0.705,0-1.425-0.185-1.425,0.331
		c0,1.879,1.602,5.09,4.216,5.09c3.482,0,3.556-3.497,6.155-3.497c1.117,0,2.748,0.918,2.748,4.495
		c0,6.949-4.557,14.662-9.946,20.627c-1.233-1.704-2.909-2.762-4.922-2.762c-3.188,0-5.964,3.32-5.964,7.434
		c0,1.513,0.234,2.615,0.793,3.879c-1.808,0.998-3.395,1.572-4.584,1.572c-2.424,0-6.084-0.984-6.084-6.302
		c0-11.842,15.869-22.273,15.869-37.281c0-7.177-4.774-14.303-14.781-14.303c-10.754,0-8.74,9.793-18.023,9.793
		c-0.429,0-0.78,0.132-0.78,0.506c0,0.618,1.617,6.039,6.436,6.039c5.128,0,6.582-8.88,11.139-8.88c1.688,0,4.229,0.991,4.229,7.016
		c0,4.693-2.308,12.252-5.656,19.511c-1.188-1.206-2.819-2.086-4.672-2.086c-3.98,0-6.847,3.864-6.847,8.448
		c0,2.924,1.161,5.715,3.13,7.566c-2.351,2.998-4.731,5.436-7.992,5.436c-6.406,0-9.248-3.642-9.248-7.595
		c0-4.306,7.837-5.862,7.837-12.548c0-4.569-2.968-7.132-5.804-7.132c-3.07,0-4.635,2.034-4.95,2.034
		c-0.314,0-1.881-2.034-4.952-2.034c-2.843,0-5.803,2.563-5.803,7.132c0,6.686,7.816,8.242,7.816,12.548
		c0,3.953-2.828,7.595-9.234,7.595c-3.247,0-5.642-2.438-7.984-5.436c1.97-1.851,3.107-4.642,3.107-7.566
		c0-4.584-2.858-8.448-6.825-8.448c-1.851,0-3.474,0.881-4.679,2.086c-3.328-7.258-5.657-14.817-5.657-19.511
		c0-6.025,2.542-7.016,4.239-7.016c4.547,0,5.987,8.88,11.151,8.88c4.797,0,6.403-5.42,6.403-6.039c0-0.374-0.345-0.506-0.764-0.506
		c-9.3,0-7.302-9.793-18.027-9.793c-10.005,0-14.788,7.126-14.788,14.303c0,15.008,15.891,25.439,15.891,37.281
		c0,5.318-3.672,6.302-6.099,6.302c-1.204,0-2.774-0.574-4.584-1.572c0.56-1.264,0.793-2.366,0.793-3.879
		c0-4.114-2.799-7.434-5.972-7.434c-2.012,0-3.688,1.058-4.914,2.762c-5.392-5.965-9.932-13.678-9.932-20.627
		c0-3.577,1.607-4.495,2.718-4.495c2.608,0,2.682,3.497,6.171,3.497c2.622,0,4.216-3.211,4.216-5.09
		c0-0.516-0.727-0.331-1.433-0.331c-5.7,0-4.65-4.364-11.327-4.364c-2.256,0-9.873,1.235-9.873,11.99
		c0,16.352,20.165,21.273,15.485,33.82c8.558-1.25,8.455,7.081,8.617,22.007C204.41,169.221,221.085,163.581,250.646,163.581
		 M196.455,185.633c-8.053,1.762-13.812,3.423-16.396,4.216c0.133-3.555,1.469-6.847,4.645-7.581c0.41-0.087,0.515-0.632,0.14-0.88
		c-7.177-4.776-11.012,4.348-11.137,4.643c-2.542-0.177-6.406,0.616-6.406,4.053c0,10.256-23.485,15.971-28.928,16.794
		c9.58,3.702,13.583,15.794,13.583,15.794c6.963-6.964,15.103-13.106,16.908-13.106c1.852,0,2.558,2.322,2.695,3.702
		c0.044,0.456,0.479,0.619,0.766,0.206c3.644-5.436,1.896-6.669,1.594-8.255c-0.242-1.264,0.14-6.039,5.441-5.466v68.522
		l-2.718,0.545c-1.264,0.22-11.283-8.301-22.75-16.234c-11.474-7.935-17.645-3.188-30.733,3.893
		c-17.123,9.271-34.438,0.867-34.438,0.867c-14.773,10.549-19.783,41.049-19.783,41.049c-2.943,1.266-7.823,2.586-12.442,2.586
		c-11.271,0-13.342-6.814-13.342-10.898c0-17.396,21.781-24.857,21.781-42.005c0-4.158-1.911-21.083-22.854-21.083
		c-2.676,0-18.651-0.029-18.727-0.029c-7.838,0-9.8-5.641-10.879-7.786c-0.419-0.854-1.219-0.367-0.918,0.293
		c0.604,1.439-0.918,3.629-0.918,7.979c0,6.965,4.091,11.166,11.724,11.166c3.462,0,6.724-0.999,7.772-1.63
		c0.713-0.411,1.087,0.263,0.756,0.646c-3.312,3.878-3.585,11.136-2.21,12.914c0.316,0.428,0.72,0.295,0.793-0.029
		c1.853-7.374,8.742-14.323,18.012-14.323c11.357,0,11.3,9.667,11.3,11.987c0,13.957-24.508,24.212-24.508,43.386
		c0,19.467,20.562,23.64,32.478,20.555c-0.705,19.48-23,26.123-23.676,12.193c-0.066-0.678-0.529-0.838-0.903,0.06
		c-2.813,6.876-1.705,12.931,6.979,14.854c0.589,0.16,0.302,0.471-0.241,0.838c-8.587,5.465-3.924,26.943-3.504,33.263
		c0.646,9.108-8.411,8.021-9.146,7.758c-0.375-0.133-0.734,0.043-0.169,0.765c6.428,7.891,14.354,0.674,14.354,0.674
		c5.986,1.882,2.271,6.994-1.712,9.685c-0.632,0.427-0.571,0.822,0.104,0.866c0.889,0.059,10.167,0.854,11.827-6.553
		c4.105,4.906,10.137,3.113,11.416,2.468c1.775-0.91,10.475-4.068,11.328,5.716c0.059,0.691,0.47,0.234,0.756-0.132
		c6.575-8.259-0.472-13.354-4.379-13.957c0.314-0.44,5.574-4.819,10.32,1.233c0.316,0.41,0.617,0.498,0.677-0.31
		c0.544-10.489-7.992-11.446-13.494-6.875c-0.259-1.088-2.096-6.979,6.229-6.772c0.191,0,0.604-0.295,0.176-0.69
		c-6.464-6.849-11.774-0.633-13.01,0.854c-2.894,3.394-10.049,2.039-10.71,1.953c2.24-36.406,34.313-23.509,38.72-41.197
		c0.215-0.938,0.634-0.586,0.706-0.25c1.221,4.32,12.113,4.922,14.099-3.567c0.125-0.528,0.043-0.956-0.331-0.56
		c-9.278,9.285-30.192-19.719-1.653-43.252c24.359-20.101,46.185-8.904,54.492-2.293c0.434,2.908-1.293,3.85-2.409,4.201
		c-0.389,0.117-0.528,0.5,0.104,0.734c2.337,0.882,5.598,0.616,7.133-1.559c5.237,3.644,0.756,8.257-1.366,9.521
		c-0.529,0.338-0.302,0.705,0.146,0.793c4.805,0.854,8.757-4.056,8.954-6.876l0.794,0.472v20.686
		c0,29.443,33.989,33.529,71.285,58.504c37.288-24.975,71.271-29.061,71.271-58.504v-20.686l0.822-0.472
		c0.178,2.82,4.144,7.729,8.934,6.876c0.456-0.088,0.677-0.455,0.146-0.793c-2.115-1.266-6.582-5.878-1.365-9.521
		c1.543,2.175,4.817,2.438,7.141,1.559c0.618-0.234,0.5-0.617,0.103-0.734c-1.102-0.354-2.85-1.293-2.394-4.201
		c8.286-6.61,30.133-17.808,54.491,2.293c28.518,23.533,7.609,52.537-1.676,43.252c-0.383-0.396-0.427,0.029-0.322,0.56
		c1.998,8.489,12.869,7.89,14.075,3.567c0.087-0.336,0.527-0.688,0.72,0.25c4.406,17.688,36.496,4.791,38.729,41.197
		c-0.646,0.088-7.813,1.438-10.695-1.953c-1.231-1.484-6.553-7.699-13.03-0.854c-0.412,0.396-0.03,0.69,0.188,0.69
		c8.33-0.207,6.494,5.687,6.217,6.772c-5.495-4.571-14.03-3.614-13.475,6.875c0.045,0.808,0.367,0.72,0.679,0.31
		c4.729-6.055,9.987-1.676,10.312-1.233c-3.922,0.603-10.944,5.698-4.377,13.957c0.278,0.366,0.688,0.823,0.749,0.132
		c0.853-9.784,9.55-6.626,11.342-5.716c1.264,0.646,7.286,2.438,11.415-2.468c1.646,7.404,10.917,6.609,11.827,6.553
		c0.661-0.044,0.721-0.439,0.103-0.866c-3.994-2.688-7.714-7.803-1.73-9.685c0,0,7.946,7.216,14.354-0.674
		c0.571-0.722,0.22-0.896-0.146-0.765c-0.75,0.265-9.815,1.353-9.168-7.758c0.438-6.317,5.083-27.798-3.496-33.263
		c-0.545-0.367-0.838-0.678-0.251-0.838c8.683-1.926,9.813-7.979,6.994-14.854c-0.368-0.896-0.867-0.733-0.91-0.06
		c-0.661,13.93-22.979,7.287-23.687-12.193c11.916,3.085,32.484-1.088,32.484-20.555c0-19.174-24.506-29.43-24.506-43.385
		c0-2.32-0.062-11.987,11.298-11.987c9.271,0,16.161,6.949,18.012,14.323c0.074,0.323,0.47,0.457,0.811,0.028
		c1.351-1.777,1.102-9.035-2.222-12.914c-0.337-0.383,0.031-1.057,0.75-0.646c1.043,0.631,4.319,1.63,7.772,1.63
		c7.608,0,11.71-4.201,11.71-11.166c0-4.348-1.499-6.539-0.896-7.978c0.311-0.661-0.498-1.147-0.911-0.293
		c-1.103,2.146-3.056,7.786-10.899,7.786c-0.074,0-16.045,0.029-18.732,0.029c-20.937,0-22.846,16.925-22.846,21.083
		c0,17.146,21.788,24.606,21.788,42.005c0,4.084-2.072,10.898-13.34,10.898c-4.629,0-9.507-1.32-12.431-2.586
		c0,0-5.024-30.5-19.808-41.049c0,0-17.306,8.404-34.437-0.867c-13.092-7.081-19.247-11.826-30.734-3.893
		c-11.461,7.936-21.479,16.454-22.729,16.234l-2.749-0.545v-68.522c5.318-0.572,5.7,4.202,5.45,5.466
		c-0.277,1.586-2.041,2.82,1.617,8.255c0.264,0.414,0.705,0.25,0.734-0.206c0.146-1.38,0.853-3.702,2.703-3.702
		c1.792,0,9.945,6.142,16.908,13.106c0,0,4.013-12.092,13.604-15.794c-5.464-0.823-28.942-6.538-28.942-16.794
		c0-3.437-3.878-4.23-6.403-4.053c-0.133-0.294-3.967-9.419-11.121-4.643c-0.397,0.248-0.295,0.793,0.115,0.88
		c3.174,0.734,4.525,4.026,4.673,7.581c-6.86-2.086-36.024-10.284-70.608-10.284c-16.793,0-32.256,1.938-44.547,4.158v23.757h-9.645
		v-21.849 M132.648,429.005c-2.557-1.029-4.238-2.675-4.238-6.022V408.23c-4.231-1.498-15.778-5.905-38.831-5.905
		c-19.165,0-25.167,4.334-25.438,5.847l-5.104,28.092c0,0,7.764-7.081,35.554-5.261c33.461,2.117,68.133,21.861,68.133,0.811
		v-12.386C136.49,419.426,132.648,427.771,132.648,429.005 M338.562,419.426v12.385c0,21.055,34.672,1.311,68.155-0.809
		c27.767-1.82,35.54,5.261,35.54,5.261l-5.113-28.092c-0.264-1.513-6.273-5.847-25.431-5.847c-23.056,0-34.603,4.408-38.816,5.906
		v14.75c0,3.35-1.704,4.993-4.261,6.022C368.637,427.771,364.802,419.426,338.562,419.426 M250.646,406.672
		c53.888,0,108.602,2.822,115.773,10.96c0.558,0.647,0.807-0.028,0.807-0.498l0.015-28.577c0-8.328-56.46-13.178-116.594-13.178
		s-116.581,4.85-116.581,13.178l0.017,28.577c0,0.47,0.227,1.146,0.793,0.498C142.036,409.494,196.755,406.672,250.646,406.672
		 M202.574,272.006l-5.444-1.396l-0.448,0.662l-6.339-2.763c0,0,4.665-0.03,5.663-0.059c0.521,0,0.564-0.322,0.279-0.589
		c-2.571-2.525-4.826-4.745-4.826-4.745s2.569,0.956,6.244,2.337c0.418,0.146,0.571-0.178,0.375-0.439
		c-1.765-2.615-4.166-6.113-4.166-6.113s5.099,3.408,6.12,4.115c0.329,0.221,0.603,0,0.47-0.339
		c-1.366-3.351-2.902-7.153-2.902-7.153l5.575,5.259c0.258,0.233,0.544,0.118,0.486-0.234c-0.561-2.512-1.552-7.17-1.552-7.17
		l4.105,5.979c0.242,0.365,0.543,0.248,0.559-0.164c0.016-1.157,0.118-6.551,0.118-6.551s1.733,3.967,2.607,5.992
		c0.177,0.413,0.478,0.442,0.706-0.087c0.271-0.647,2.106-5.054,2.106-5.054l0.235,6.814l-0.903,0.178l-1.139,8.213
		c8.14-1.926,18.276-15.823,26.042-15.823c9.249,0,12.621,10.845,29.728,5.334c4.321,6.392,5.819,11.942,7.495,19.644
		c6.599,6.199,15.866,4.129,15.866-2.438c0-8.874-9.652-10.549-9.652-19.805c0-4.114,2.896-10.05,10.784-10.05
		c4.172,0,10.283,1.794,13.81,1.794c4.188,0,5.069-3.042,5.538-4.291c0.385-0.939,1.517-0.618,1.411,0.104
		c-0.132,0.867,0.485,2.07,0.485,4.068c0,5.85-8.507,6.598-9.564,5.878c-0.438-0.295-0.765,0.159-0.438,0.409
		c1.275,1.027,0.982,4.524-0.529,6.729c-0.177,0.267-0.427,0.205-0.472-0.028c-0.908-4.172-5.816-9.344-10.151-9.344
		c-1.585,0-4.745,0.924-4.745,4.582c0,5.262,10.521,10.049,10.521,20.951c0,11.328-11.229,14.046-22.508,11.225
		c0.382,10.728,16.411,17.104,16.775,9.434c0.018-0.529,0.31-0.205,0.473,0.016c2.379,3.276,1.291,5.773-1.734,7.037
		c2.791,1.266,3.291,6.893,4.113,10.254c1.232,5.057,6.565,2.249,6.847,2.104c0.278-0.16,0.382-0.017,0.266,0.309
		c-2.025,5.26-7.404,3.262-7.404,3.262c-2.819,1.998,0.589,3.762,3.145,4.524c0.382,0.103,0.367,0.382,0.061,0.501
		c-1.896,0.705-5.92,1.969-7.874-1.411c-1.456,3.481-4.425,3.394-5.583,3.394c-2.061,0-3.438,2.104-2.954,4.922
		c0.045,0.25-0.132,0.324-0.31,0.179c-4.922-3.247-2.102-7.081-0.119-8.054c-0.336-0.189-3.715-1.613-5.169,2.354
		c-0.104,0.322-0.295,0.322-0.396,0.03c-2.159-5.702,2.528-7.376,5.907-5.938c-0.236-0.809-1.998-3.585-6.451-2.703
		c-0.206,0.06-0.337-0.028-0.206-0.293c0.735-1.765,2.926-4.334,6.979-1.733c2.044,1.278,5.601-0.589,5.925-0.734
		c-7.155-14.278-21.101-2.336-24.215-13.516c-0.059-0.222-0.338-0.441-0.526,0.175c-0.735,2.381-6.825,2.557-7.937-2.146
		c-0.095-0.353,0.061-0.41,0.287-0.16c0.88,0.882,2.799,1.688,5.312-1.924c1.658-2.41,1.894-5.6,1.894-7.787
		c0-8.67-8.667-23.241-22.176-23.241c-8.543,0-17.74,3.349-24.558,8.312l6.354,1.456c-0.602,6.405-6.772,10.138-12.444,8.563
		l0.979-7.33c-0.979,0.295-3.46,1.188-4.797,3.07c-0.088,0.146-0.287,0.116-0.331-0.06c-1.16-4.159,2.271-6.26,3.335-6.788
		c0.125-0.089,0.125-0.176-0.104-0.176c-3.085-0.118-4.811,2.146-5.297,2.924c-0.07,0.131-0.206,0.087-0.257-0.018
		C201.692,275.68,201.149,273.535,202.574,272.006 M221.431,321.605c-2.424,2.968-4.562,0.146-7.75,0.146
		c-3.012,0-3.505,2.497-3.585,3.496c-0.014,0.176-0.117,0.266-0.235,0.061c-3.399-4.645,0.404-7.17,2.616-7.51
		c-0.314-0.309-3.673-2.568-5.789,0.518c-0.168,0.219-0.382,0.115-0.382-0.147c-0.088-5.76,4.474-6.157,7.479-3.646
		c0.558-2.174-0.854-3.644-3.292-3.76c-0.302,0-0.347-0.178-0.229-0.324c1.021-1.088,2.013-1.586,3.012-1.586
		c3.219,0,3.607,4.041,5.717,4.041c3.145,0,7.58-4.219,8-4.675c-0.074-0.247-3.079-8.389-2.498-13.267
		c0.027-0.205-0.074-0.234-0.206-0.146c-1.521,0.866-5.37,0.84-5.37-3.922c0-0.367,0.104-0.396,0.314-0.104
		c1.697,2.351,4.438-0.293,5.789-1.838c1.491-1.631,9.403-13.164,19.952-13.164c2.314,0.018,5.325,1.279,7.729,2.97
		c-3.638,4.438-0.029,8.685,2.683,8.139c0.315-0.071,0.358,0.224,0.059,0.339c-13.941,5.229-20.172,7.332-20.172,19.014
		c0,6.111,2.071,9.49,5.655,8.697c0.272-0.088,0.346,0.027,0.147,0.233c-1.295,1.558-2.784,2.058-4.033,2.058
		c-2.889,0-3.409-1.586-4.958-1.586c-1.609,0-6.804,3.057-6.804,5.611c0,0.971,0.618,2.276,2.453,3.48
		c0.118,0.072,0.044,0.189-0.058,0.189C226.514,325.163,222.393,325.514,221.431,321.605 M258.168,208.038
		c-4.364-0.264-7.147,0.706-7.031,2.115C253.26,212.372,256.082,212.123,258.168,208.038 M242.065,218.822
		c3.085-0.78,6.474-0.411,6.832-0.279c0.5,0.147,0.485,0.882-0.074,0.956c-6.42,0.822-6.721,3.79-10.812,3.79
		c-2.711,0-5.627-2.733-4.533-6.729c0.142-0.514,0.544-0.529,0.661-0.059C234.543,218.234,237.041,220.114,242.065,218.822
		 M158.674,361.245c4.261,5.437,8.338,0.31,13.921,0.31c2.726,0,6.045,0.924,6.663,6.391c0.029,0.293,0.271,0.384,0.544,0
		c6.075-8.301-0.845-12.986-4.849-13.604c0.875-0.777,6.815-4.438,10.593,0.973c0.198,0.291,0.617,0.205,0.617-0.207
		c0-10.504-7.884-11.254-13.599-6.698c-1.07-4.085,2.015-6.804,6.002-6.804c0.462,0,0.647-0.311,0.391-0.604
		c-7.038-7.552-12.319,1.938-13.51,3.467c-2.812,3.732-12.878-3.289-16.896-7.49c0,0,8.889-9.302,8.889-17.838
		c0-0.5-0.059-1.221-0.059-1.498c0-0.265,0.125-0.384,0.36-0.234c0.875,0.499,2.123,0.883,3.282,0.867
		c2.028,0,5.869-0.646,5.869-7.892c0-0.528-0.242-0.5-0.482-0.19c-1.052,1.543-2.228,1.867-3.132,1.867
		c-7.176,0-22.161-23.935-39.836-23.935c-4.619,0-13.36,3.32-17.77,8.095c2.138,1.266,2.542,3.864,2.321,5.76
		c-0.315,3.026-2.727,4.524-5.193,5.217c-0.449,0.103-0.478,0.439,0,0.617c8.925,3.424,25.153,9.563,28.84,12.736
		c4.378,3.762,3.521,10.901,0.992,20.744c-2.445,9.434-7.669,8.141-9.593,7.832c-0.272-0.045-0.375,0.132-0.198,0.368
		c2.299,2.896,5.097,3.877,7.507,3.877c4.636,0,6.362-2.896,8.771-2.896c4.048,0,12.502,5.805,12.502,10.211
		c0,2.47-1.938,4.701-4.421,6.317c-0.169,0.132-0.142,0.31,0.102,0.354C149.228,367.68,157.146,368.371,158.674,361.245
		 M353.989,367.357c0.234-0.045,0.265-0.222,0.116-0.354c-2.497-1.614-4.438-3.851-4.438-6.315c0-4.408,8.446-10.213,12.504-10.213
		c2.395,0,4.128,2.896,8.771,2.896c2.396,0,5.188-0.983,7.508-3.877c0.162-0.236,0.074-0.413-0.189-0.368
		c-1.938,0.309-7.169,1.602-9.607-7.832c-2.525-9.843-3.365-16.982,0.999-20.744c3.688-3.173,19.922-9.314,28.854-12.736
		c0.471-0.178,0.44-0.517,0-0.619c-2.47-0.688-4.877-2.188-5.201-5.215c-0.234-1.896,0.178-4.496,2.308-5.76
		c-4.408-4.773-13.164-8.095-17.763-8.095c-17.675,0-32.675,23.933-39.859,23.933c-0.882,0-2.057-0.324-3.112-1.867
		c-0.221-0.308-0.472-0.336-0.472,0.192c0,7.243,3.834,7.89,5.862,7.89c1.161,0.018,2.395-0.367,3.276-0.867
		c0.25-0.146,0.364-0.026,0.364,0.236c0,0.277-0.059,0.997-0.059,1.497c0,8.537,8.903,17.837,8.903,17.837
		c-4.039,4.202-14.104,11.227-16.911,7.492c-1.188-1.527-6.463-11.02-13.517-3.467c-0.234,0.293-0.072,0.604,0.411,0.604
		c3.951,0,7.054,2.717,5.979,6.804c-5.7-4.558-13.576-3.808-13.576,6.698c0,0.41,0.396,0.498,0.618,0.205
		c3.76-5.406,9.694-1.748,10.562-0.971c-3.995,0.617-10.916,5.305-4.817,13.605c0.25,0.382,0.483,0.293,0.527,0
		c0.617-5.467,3.938-6.394,6.655-6.394c5.583,0,9.667,5.128,13.928-0.309C344.146,368.371,352.063,367.68,353.989,367.357
		 M210.941,229.21c-0.572,0.763-2.425-0.045-3.13-0.368c-0.162-0.074-0.188,0-0.132,0.118c0.448,0.998,2.24,4.01,4.9,4.01
		c1.205,0,2.967-0.72,3.459-1.513c0,0,10.417,3.379,15.559,4.79c-1.998,2.659-3.247,5.877-3.489,9.343
		c-4.148-2.541-20.76-11.458-20.76-11.458l-5.165,7.05c-0.837,1.147-4.965-1.849-4.104-3.025l3.929-5.377
		c-1.292-1.381-4.444-0.499-5.281-0.264c-0.125,0.029-0.228-0.029-0.125-0.234c0.5-1.059,2.454-4.306,7.346-2.852
		c0.017-2.967-4.436-2.027-5.597-1.704c-0.132,0.029-0.183-0.03-0.059-0.161c1.205-1.293,4.812-4.218,8.858-1.822l1.777-2.425
		l-3.571-3.732l2.229-3.084l2.498,3.379l19.187-26.27c0.463-0.646,4.253-1.749,5.701-2.057c0.146,1.47,0.316,5.407-0.154,6.054
		l-18.85,26.505l3.974,1.292l-2.194,3.084l-4.694-2.189L210.941,229.21z M278.179,224.904c0,2.424,1.483,5.936,4.701,4.936
		c0.161-0.088,0.309-0.03,0.278,0.118c-0.499,2.689-5.289,5.143-7.479,1.97c-1.938,4.113-1.499,7.948,2.703,10.196
		c0.235,0.146,0.279,0.425,0,0.616c-2.498,1.822-6.377,1.409-8.199-2.085c-3.438,2.586-2.937,8.109-0.851,9.989
		c0,0.029-9.521,5.655-18.159,1.646c-5.738-2.762-10.403-6.257-17.785-5.699c1.036-10.358,6.215-13.076,15.735-14.575
		c7.603-1.234,8.569-4.729,7.483-7.375c-2.578-0.674-7.315,1.69-7.315,1.69c-0.847-1.425,0.39-2.894,0.39-2.894
		c-0.485-0.588-0.713-2.498-0.713-2.498c5.311,0,6.259-1.176,6.259-1.176c0.956-5.539-4.688-6.126-8.992-3.145
		c-2.006-1.762-1.675-4.113-1.675-4.113c-0.595-0.293-0.977-1.22-0.977-1.617c0-1.292,6.324-4.849,7.946-5.275
		c0.403-1.836,2.689-4.377,9.396-3.774c0.794-1.777-0.499-8.258-1.321-10.006c-0.266-0.514,0.116-0.809,0.704-0.456
		c2.336,1.498,4.672,6.964,6.259,7.052c0,0,7.537-3.938,7.904-3.732c0.368,0.206,1.426,8.64,1.426,8.64
		c0.999,1.233,6.816,0.029,9.358,1.101c0.646,0.279,0.617,0.75,0.043,0.838c-1.909,0.323-7.979,2.939-8.961,4.613
		C279.81,215.105,278.179,222.788,278.179,224.904"/>
</g>
</svg>
